<?xml version="1.0" encoding="utf-8"?>
<!-- Generator: Adobe Illustrator 26.1.0, SVG Export Plug-In . SVG Version: 6.00 Build 0)  -->
<svg version="1.1" id="Layer_1" xmlns="http://www.w3.org/2000/svg" xmlns:xlink="http://www.w3.org/1999/xlink" x="0px" y="0px"
	 viewBox="0 0 3254.56 3049.7" style="enable-background:new 0 0 3254.56 3049.7;" xml:space="preserve">
<style type="text/css">
	.st0{fill:#FFFFFF;}
</style>
<g>
	<path class="st0" d="M1869.88,1064.87c4.9-22.45,20.98-34.18,38.96-45.4c-2.3-1.38-3.78-2.39-5.36-3.19
		c-27.75-14.18-55.58-15.45-83.97-1.46c-22.27,10.98-44.43,22.09-65.71,34.94c-20.89,12.61-43.62,19.29-68.13,18.44
		c-28.25-0.99-52.99-11.45-74.44-29.67c-5.31-4.51-10.03-9.71-15.06-14.57c-2.21-2.13-4.49-4.18-6.7-6.23
		c-10.79,10.09-12.59,23.41-4.91,34.93c1.99,2.98,4.32,5.88,6.99,8.25c11.91,10.53,24.01,20.85,36.03,31.26
		c5.28,4.57,10.74,8.96,15.75,13.82c9.44,9.15,15.52,20.18,17.44,33.34c0.13,0.9,0.42,1.78,0.82,3.44
		c5.96-3.31,11.56-6.42,17.25-9.58c6.44,6.09,10.54,13.11,13.98,20.57c5.72,12.4,8.16,25.66,10.01,39.07
		c1.32,9.54,2.66,19.09,4.05,28.63c0.2,1.37,0.69,2.69,1.22,4.73c21.24-7.2,42.09-14.26,62.94-21.33c-0.05-0.52-0.09-1.03-0.14-1.56
		c-11.96-2.35-23.91-4.81-35.9-7.04c-8.88-1.65-11.81-4.7-13.23-13.61c-2.62-16.41-5.45-32.78-8.19-49.17
		c-0.39-2.34-0.7-4.7-1.12-7.57c2.3-0.24,4.12-0.58,5.94-0.58c17.84,0.02,35.68,0.33,53.51,0.09c25.7-0.34,48.63-8.59,68.62-24.92
		c8.38-6.85,17.29-7.26,26.8-2.01c30.59,16.89,56.92,38.72,77.95,66.77c4.19,5.59,8.7,10.95,12.88,16.55
		c22.03,29.49,22.26,67.71-1.72,95.52c-19.01,22.04-40.38,42.06-60.72,62.95c-0.58,0.6-1.49,0.89-2.81,1.65
		c-0.43-6.59-0.58-12.54-1.26-18.43c-2.23-19.1-8.33-37.14-16.07-54.58c-3.82-8.6-4.02-17.05-2.86-26.09
		c2.04-15.75,3.47-31.59,5.12-47.16c-3.37-2.55-5.62-1.84-7.58,1.15c-2.25,3.43-4.85,6.63-7.01,10.1
		c-10.85,17.49-25.58,30.56-44.18,39.36c-4.99,2.36-9.75,5.2-15.37,8.22c8.76,8.03,17,15.58,26.01,23.85
		c-3.47,1.27-5.89,2.21-8.34,3.05c-19.58,6.76-39.17,13.48-58.72,20.29c-2.21,0.77-5.78,0.64-4.26,5.85
		c6.66-0.73,13.5-1.51,20.33-2.25c16.77-1.79,33.54-3.57,50.32-5.34c0.72-0.08,1.44-0.12,2.16-0.15
		c12.63-0.58,15.72,1.93,17.76,14.48c0.34,2.11,0.55,4.25,0.91,7.12c-9.91,1.62-19.58,3.2-29.25,4.8
		c-23.09,3.81-45.98,8.38-67.79,17.22c-13.71,5.55-26.53,12.63-38.16,21.8c-1.87,1.48-3.65,3.07-5.28,5.17
		c46.09-13.62,92.52-21.98,141.43-12.77c-1.12,7.14-2.13,13.75-3.19,20.36c-0.69,4.34-3.31,7.08-7.56,7.63
		c-8.58,1.11-17.2,2.02-25.83,2.75c-18.48,1.56-37.07,2.21-55.45,4.56c-33.09,4.23-61.22,19.45-85.98,41.33
		c-0.33,0.29-0.42,0.84-0.95,1.97c2.19-0.48,3.92-0.83,5.64-1.26c22.42-5.61,44.66-12.03,67.28-16.65
		c27.64-5.64,55.56-5.74,83.27,0.51c2.56,0.58,5.09,1.31,7.58,1.95c-0.39,5.34-11.05,32.51-18.26,46.5
		c-5.52-0.9-11.37-1.89-17.24-2.79c-14.04-2.15-28.04-4.85-42.16-6.23c-22.2-2.17-43.82,1.82-64.62,9.31
		c-25.37,9.14-50.42,19.17-75.62,28.76c-4.04,1.54-8.11,3.18-12.31,4.1c-6.35,1.4-10.22-1.65-11.06-8.06
		c-0.1-0.72-0.15-1.45-0.1-2.17c1.06-15.62,1.67-31.29,3.37-46.85c1.58-14.46,9.37-26.2,19.11-36.56
		c17.84-18.96,35.84-37.78,53.88-56.55c8.19-8.51,16.73-16.68,24.96-25.16c3.17-3.28,6.21-6.77,8.79-10.52
		c6.42-9.34,7.95-19.7,4.14-30.33c-4.15-11.55-9.03-22.84-13.65-34.22c-0.24-0.58-0.96-0.96-2.03-1.96
		c-1.36,2.21-2.62,4.16-3.8,6.17c-3.66,6.23-7.1,12.6-10.99,18.68c-5.81,9.08-14.22,12.76-24.85,10.53
		c-9.65-2.03-19.31-4.13-28.85-6.64c-17.51-4.61-34.59-3.33-50.76,4.49c-26.93,13.03-55.45,17.17-84.95,17.18
		c-8.4,0-16.85,0.61-25.16,1.78c-9.61,1.36-18.51,5.1-26.84,10.2c-7.81,4.78-15.73,9.38-23.67,13.94
		c-10.66,6.12-21.12,5.61-31.31-1.23c-6.36-4.27-12.75-8.52-19.17-12.82c-12.9,29.51-3.83,52,14.53,64.65
		c4.74,3.26,9.8,6.17,14.99,8.67c29.51,14.23,59.17,28.16,88.62,42.51c6.22,3.03,12.34,6.74,17.58,11.21
		c19.47,16.64,23.65,42.5,11.09,64.84c-4.2,7.46-9.85,13.67-16.23,19.26c-20.31,17.83-44.1,28.29-70.6,32.54
		c-38.21,6.12-74.4,0.16-108.03-19.4c-13.47-7.83-25.1-17.89-34.72-30.19c-1.32-1.68-2.47-3.49-3.88-5.5
		c3.08-2.2,6.26-1.21,9.21-1.25c21.21-0.3,42.46,0.24,63.6-0.99c16.3-0.95,32.48-4.06,48.7-6.26c1.59-0.21,3.13-0.79,4.79-2.18
		c-6.29-1.38-12.57-2.8-18.87-4.12c-37.01-7.75-74.03-15.43-111.03-23.22c-18.81-3.96-22.96-8.85-24.56-29.25
		c40.43,2.81,80.71,5.6,121.16,8.41c1.55-2.55,2.14-4.55-1.36-5.6c-4.15-1.24-8.3-2.49-12.47-3.69
		c-34.94-10.07-69.89-20.12-104.83-30.19c-13.4-3.86-16.21-7.71-17.8-21.85c-1.3-11.47-3.33-22.86-5.15-35.12
		c2.44,0,4.73-0.21,6.98,0.03c19.89,2.1,39.77,4.28,59.66,6.42c8.15,0.87,16.3,1.71,24.45,2.54c1.19,0.12,2.46,0.37,3.56,0.06
		c0.7-0.19,1.51-1.24,1.61-1.99c0.1-0.75-0.43-2.04-1.04-2.33c-1.72-0.82-3.62-1.3-5.47-1.84c-24.74-7.19-49.47-14.43-74.24-21.51
		c-14.37-4.11-16.39-9.32-7.57-21.5c11.45-15.82,23.11-31.48,34.66-47.22c1.1-1.5,2.01-3.13,3.42-5.35
		c-15.69-2.8-28.72-9.58-39.48-20.61c-10.55-10.82-17.98-23.75-25.15-37.6c-5.25,4.79-7.57,10.57-7.63,16.76
		c-0.05,5.93,0.63,12.11,2.34,17.77c4.68,15.48,5,30.73,0.28,46.24c-6.6,21.66-12.86,43.42-19.28,65.14
		c-0.27,0.91-0.73,1.77-1.25,3.02c-0.88-0.51-1.79-0.8-2.35-1.4c-19.04-20.48-38.04-40.99-57.04-61.5
		c-0.98-1.06-1.81-2.26-2.77-3.34c-18.14-20.27-20.72-43.39-11.74-68.16c9.94-27.42,26.22-50.86,46.8-71.39
		c14.24-14.2,30.17-26.24,47.32-36.7c2.86-1.75,5.91-3.28,9.04-4.48c9.56-3.66,18.44-2.28,26.48,4.15c0.75,0.6,1.54,1.18,2.19,1.88
		c16.37,17.66,37.48,23.84,60.61,24.5c17.34,0.49,34.71,0.24,52.06,0.32c4.3,0.02,8.61,0,14,0c-4.13,22.93-8.89,44.92-13.44,67.36
		c-14.85,3.58-29.52,7.11-45.84,11.04c2.5,1.86,3.55,3.04,4.85,3.51c2.02,0.74,4.19,1.1,6.33,1.44c15.15,2.44,29.33,7.6,42.69,15.1
		c2.68,1.51,5.49,2.79,9.2,4.66c1.09-7.51,1.97-14.11,3.01-20.69c1.88-11.89,3.49-23.85,5.89-35.64
		c2.38-11.65,6.97-22.54,13.82-32.37c1.63-2.35,3.46-4.55,5.47-7.16c5.55,3.22,10.72,6.21,16.26,9.42c0.59-1.15,1.34-2.09,1.57-3.14
		c3.05-13.91,10.25-25.48,20.52-35.03c7.93-7.38,16.61-13.93,24.78-21.06c8.7-7.6,17.25-15.39,25.71-23.26
		c2.27-2.11,4.11-4.73,5.93-7.27c6.09-8.46,6.56-17.37,1.72-26.54c-1.56-2.96-3.41-5.76-5.68-9.58c-2.15,2.41-3.85,4.27-5.5,6.17
		c-24.01,27.84-54.11,43.75-91,45.51c-18.12,0.87-35.46-3.59-51.72-11.49c-20.37-9.9-40.47-20.32-60.71-30.47
		c-8.83-4.43-17.55-9.12-26.6-13.04c-24.73-10.72-49.53-11.09-74.15,0.55c-2.16,1.02-4.24,2.22-7.34,3.85
		c13.42,14.32,26.47,28.24,40.24,42.93c-15.6,7.3-30.24,13.99-46.97,12.45c-23.06-2.14-40.56-21.87-41.03-46.64
		c-0.51-27.23,8.22-51.67,24.4-73.39c4.73-6.35,10.16-12.27,15.87-17.75c40.85-39.26,81.86-78.35,122.81-117.51
		c13.79-13.19,28.09-25.73,44.17-36.1c18.4-11.86,38.02-20.81,59.61-25.01c29.87-5.81,58.48-1.38,86.1,10.82
		c13.72,6.07,26.48,13.8,38.63,22.56c4.5,3.24,9.06,6.39,13.67,9.46c6.05,4.04,12.23,3.99,18.28,0.02
		c4.83-3.17,9.62-6.43,14.32-9.79c16.76-11.99,34.55-22.01,54.21-28.41c36.39-11.86,71.74-8.61,106.15,7.57
		c22.48,10.57,42.36,24.96,60.23,42.05c27.53,26.33,54.69,53.03,82.07,79.52c13.52,13.08,27.11,26.08,40.76,39
		c11.07,10.48,21.4,21.55,29.56,34.51c15.48,24.59,19.37,51,12.33,79.08c-0.7,2.79-1.69,5.53-2.8,8.19
		c-5.47,13.17-15.6,20.34-29.65,20.38c-9.79,0.02-19.62-1.77-29.38-3.07C1881.53,1067.53,1876.16,1066.15,1869.88,1064.87
		 M1808.42,919.33c-3.89-5.56-8.68-7.74-13.67-9.39c-8.1-2.67-16.51-3.57-24.98-2.91c-33.38,2.62-63.25,14.15-88.83,36
		c-8.14,6.95-14.78,15.19-19.26,25c-0.6,1.3-0.73,2.81-0.97,3.77c12.03-6.85,23.66-14.14,35.87-20.26
		c17.72-8.89,36.79-14.18,56-18.85C1770.81,928.27,1789.07,923.96,1808.42,919.33 M1417.11,969.48
		c-3.04-8.64-8.13-15.62-14.39-21.64c-26.68-25.67-58.81-38.84-95.6-40.5c-10.14-0.46-20.25,1.12-29.23,6.59
		c-2.71,1.65-5.88,3.06-6.88,7.06C1322.46,929.57,1372.83,940.16,1417.11,969.48 M1539.62,951.8c13.06-17.63,25.52-34.4,37.85-51.26
		c0.84-1.15,0.73-2.99,1.44-6.27c-12.73,9.19-24.75,16.15-39.29,16.19c-14.94,0.04-26.84-7.39-37.46-16.78
		c-3.71,3.39-1.87,5.71-0.07,8.1c7.38,9.8,14.72,19.62,22.08,29.43C1529.06,937.74,1533.96,944.26,1539.62,951.8 M1582.88,1117.72
		c0.25-0.5,0.51-1,0.76-1.5c-3.11-2.09-6.04-4.53-9.36-6.21c-18.83-9.52-38.55-11.54-58.93-6.07c-6.33,1.7-12.19,4.59-16.76,9.5
		c-0.98,1.05-1.49,2.54-2.46,4.27H1582.88z"/>
	<path class="st0" d="M2489.93,495.98c-84.09,107.42-167.43,213.88-251.02,320.67c-1.59-1.02-3.05-1.73-4.27-2.75
		c-74.15-62.25-156.39-111.6-243.73-152.79c-75.72-35.7-154.03-64.79-233.32-91.36c-65.79-22.05-132.08-42.36-199.54-58.7
		c-56.01-13.57-112.55-24.29-169.83-30.8c-57.82-6.58-115.82-8.95-173.98-5.9c-2.37,0.12-4.76,0.02-7.06,0.02
		c-1.77-5.33-11.86-399.66-10.49-408.22c0.67,0.15,1.48,0.12,1.98,0.48c17.67,13.05,35.1,26.39,48.88,43.77
		c2.99,3.77,5.84,7.69,8.32,11.81c3.49,5.77,2.89,12.47-1.6,16.5c-14.63,13.13-20.28,30.29-21.38,49.06
		c-1.77,30.29,5.78,58.43,22.63,83.66c15.28,22.88,36.93,36.92,63.84,42.6c12.32,2.6,23.93-0.27,35.01-5.71
		c9.84-4.83,18.29-11.61,26.15-19.15c26.49-25.4,44.6-56.09,56.4-90.58c4.36-12.74,8.03-25.76,11.16-38.86
		c1.36-5.69,0.9-11.9,0.65-17.85c-0.36-8.4-1.51-16.77-1.91-25.17c-0.34-7.13,2.1-13.17,8.11-17.59
		c10.67-7.85,21.07-16.06,31.88-23.7c6.59-4.66,14.64-2.4,17.98,5.07c5.8,12.96,11.02,26.18,16.54,39.27
		c1.98,4.69,1.22,8.97-1.69,12.94c-4.12,5.64-8.12,11.38-12.56,16.76c-4.09,4.95-6.84,10.31-8.31,16.59
		c-7.8,33.12-8.19,66.1,3.5,98.32c18.5,51.04,55.49,83.08,107.16,96.66c61,16.03,114.3-1.26,159.8-43.69
		c20.48-19.1,35.74-42.23,48.02-67.36c4.05-8.28,4.49-17.15,5.15-26.04c0.62-8.41,1.26-16.81,2.02-25.21
		c0.65-7.33,3.38-13.38,10.16-17.27c11.68-6.71,22.99-14.1,34.88-20.4c9.3-4.93,20.11-0.78,25.12,8.61
		c6.71,12.59,11.71,25.87,15.77,39.54c1.48,4.99,1.18,9.6-1.55,13.87c-4.13,6.49-8.17,13.1-12.98,19.08
		c-5.39,6.71-9.22,13.84-11.34,22.27c-9.27,36.89-11.26,73.75-0.8,110.74c16.34,57.79,65.14,105.52,122.8,118.15
		c54.03,11.83,101.03-3.61,141.28-40.58c19.34-17.76,32.87-39.54,41.69-64.29c2.51-7.05,3.41-13.77,0.78-21.09
		c-3.33-9.28-1-17.88,6.14-24.48c11.28-10.41,24.36-18.1,39.08-22.61c7.4-2.27,12.73-0.13,16.71,6.45
		c2.47,4.09,4.57,8.56,5.89,13.13c2.54,8.77,5.06,17.63,6.4,26.64c1.79,11.98-2.72,21.86-13.01,28.56
		c-7.54,4.92-12.66,11.62-16.52,19.62c-17.05,35.4-27.67,72.43-28.28,111.94c-0.26,16.68,1.3,33.24,5.12,49.51
		c7.41,31.6,27.5,49.59,59.91,52.67c41.21,3.92,75.75-10.08,103.66-40.46c13.16-14.33,20.28-31.34,21.93-50.82
		c0.6-7.16,2.4-14.22,3.85-21.3c1.6-7.84,6.42-12.46,14.19-14.68c14.94-4.25,30.21-6.2,45.62-6.95c8.17-0.4,16.38,0.04,24.58,0.19
		C2486.59,494.78,2487.7,495.35,2489.93,495.98 M1845.16,463.29c-0.24-36.3-27.28-63.53-62.98-63.4
		c-36.02,0.13-63.65,28.06-63.34,64.02c0.31,35.95,27.63,62.55,63.98,62.3C1818.97,525.96,1845.39,499.29,1845.16,463.29
		 M1434.03,345.07c-29.42,0.08-52.47,23.49-52.25,53.06c0.22,28.79,23.81,51.53,53.27,51.34c29.26-0.18,52.01-23.33,51.8-52.7
		C1486.65,367.69,1463.45,344.99,1434.03,345.07 M2154.19,618.94c0.21-29.44-23.02-52.83-52.53-52.9
		c-29.33-0.06-52.13,22.5-52.59,52.04c-0.44,28.71,23.09,52.46,52.13,52.61C2130.42,670.85,2153.99,647.83,2154.19,618.94"/>
	<path class="st0" d="M1978.17,1414.25c30.35,21.97,48.58,52.42,61.89,86.39c0.49-0.04,0.99-0.09,1.48-0.13
		c0.4-2.61,0.96-5.21,1.17-7.83c1.71-21.82-0.63-43.34-5.03-64.67c-3.7-17.93-7.63-35.82-11.44-53.72c-0.29-1.36-0.4-2.77-0.71-4.97
		c2.38,0.93,4.15,1.44,5.74,2.27c18.09,9.44,33.33,22.21,44.18,39.59c8.8,14.1,16.88,28.64,25.29,42.99
		c1.29,2.2,2.57,4.39,3.86,6.58l1.43-0.48c-0.53-8.02-0.84-16.06-1.64-24.06c-5.64-56.95-24.48-109.29-55.31-157.4
		c-2.77-4.32-2.73-4.35-0.48-8.17c26.82,11.5,49.38,29.35,71.54,48.15c-13.27-37.13-35.56-68.34-61.55-97.63
		c22.44,3.53,43.35,11.21,63.44,21.3c20.13,10.1,38.39,23,55.95,37.27c-17.54-35.56-40.55-67.14-68.31-95.33
		c-27.86-28.28-59.47-51.73-93.79-71.68l0.28-1.63c2.36-0.54,4.81-1.78,7.07-1.5c52.24,6.52,102.13,20.16,146.14,50.39
		c49.89,34.28,82.32,81.38,98.71,139.25c6.81,24.05,11.27,48.8,16.18,73.36c9.08,45.41,19.05,90.58,36.31,133.72
		c6.35,15.85,14.11,31.14,21.19,46.7c1.37,3.01,2.55,6.11,4.35,10.43c-3.28-0.27-5.3-0.29-7.26-0.63
		c-38.32-6.6-65.87-27.97-84.46-61.62c-1.44-2.6-2.86-5.21-4.28-7.82c-0.46,0.14-0.93,0.28-1.4,0.42
		c-1.05,8.5-2.05,17.01-3.13,25.51c-3.46,27.25-6.49,54.57-10.54,81.73c-5.85,39.19-15.12,77.55-30.32,114.29
		c-1.09,2.63-2.33,5.19-4.64,7.75c-0.29-1.69-0.76-3.37-0.84-5.06c-1.57-31.3-3.08-62.61-4.67-93.9c-0.12-2.39,0.94-5.47-3.22-6.69
		c-0.45,1.13-1.04,2.1-1.22,3.14c-5.64,33.43-16.66,65.3-28.13,97.05c-10.07,27.87-20.3,55.68-27.13,84.6
		c-4.33,18.36-6.99,36.93-7.78,55.76c-0.13,3.02-0.02,5.99-5.32,6c-9.62-18.09-19.5-36.64-29.37-55.2
		c-0.51,0.08-1.03,0.16-1.54,0.25c-12.21,60.96-24.44,121.93-36.99,184.57c-2.34-3.31-3.89-5.33-5.27-7.46
		c-12.74-19.67-20.53-41.38-25.97-63.99c-3.16-13.12-5.84-26.34-8.78-39.51c-0.29-1.29-0.84-2.51-1.27-3.77
		c-0.49,0.03-0.98,0.05-1.47,0.08c-1.49,9.62-3.31,19.22-4.41,28.89c-3.42,30.15-2.24,60.16,3.67,89.95
		c0.6,3.01,1.18,5.84-3.73,7.12c-4.43-7.56-9-15.37-13.52-23.11c-7.38,2.98-7.57,3-6.77,9.83c2.59,22.26,5.34,44.51,8.02,66.76
		c0.17,1.42,0.31,2.85,0.54,4.92c-1.27-0.52-2.2-0.64-2.75-1.16c-22.65-21.48-43.27-44.63-59.2-71.7
		c-15.01-25.52-23.44-53.2-27.69-82.36c-7.4-50.81-3.23-101.04,8.04-150.77c6.66-29.36,14.7-58.4,21.71-87.68
		c7.99-33.36,13.36-67.12,13.3-101.56c-0.01-8.92-0.24-17.84-0.25-26.76c0-2.22,0.47-4.43,0.92-8.36c2.27,2.57,3.57,3.57,4.26,4.88
		c5.59,10.66,11.09,21.37,16.58,32.08c1.84,3.59,3.55,7.24,6.02,10.71C1986.8,1525.26,1991.61,1470.01,1978.17,1414.25"/>
	<path class="st0" d="M1062.71,1110.69c-70.4,42.71-126.1,98.59-163.63,172.07c1.65-1.03,3.35-1.99,4.92-3.12
		c14.1-10.11,27.89-20.67,42.32-30.28c21.28-14.14,44.4-24.12,69.88-27.99c0.94-0.14,1.89-0.2,4.12-0.43
		c-2.19,2.78-3.69,4.81-5.31,6.74c-18.83,22.38-36.25,45.71-48.88,72.27c-2.76,5.81-5.17,11.78-6.72,18.48
		c1.25-0.81,2.59-1.52,3.74-2.46c8.03-6.55,15.94-13.25,24.05-19.71c11.73-9.35,24.32-17.34,38.29-22.99
		c2.59-1.05,5.29-1.83,8.46-2.23c-29.99,48.22-51.17,99.4-57.12,156.08c-0.97,9.18-1.26,18.42-0.94,27.96
		c15.46-30.99,34.52-58.67,63.61-78.13c5.07-3.4,10.44-6.36,16.33-9.04c-14.56,42.46-21.6,85.56-17.8,131.88
		c1.66-2.65,2.65-4.02,3.43-5.5c6.38-12.15,12.22-24.61,19.19-36.41c9.26-15.67,21.27-29.19,35.34-40.8
		c1.26-1.04,2.61-1.98,4.66-2.79c-12.68,56.84-7.77,113.37,0.78,169.82c0.5,0.09,0.74,0.18,0.97,0.16c0.21-0.02,0.54-0.09,0.61-0.24
		c7.79-15.98,15.57-31.97,23.36-47.99c5.01-0.14,4.72,3.05,4.65,6.34c-0.22,10.12-0.66,20.24-0.36,30.35
		c1.06,36.31,7.51,71.84,16,107.05c6.5,26.92,13.71,53.68,19.95,80.66c8.29,35.84,12.36,72.21,10.95,109.04
		c-1.48,38.62-7.45,76.24-26.06,110.89c-16.08,29.95-38.22,54.86-63.58,77.13c-0.65,0.57-1.55,0.86-3.41,1.86
		c3.23-25.53,6.33-50.05,9.43-74.57c-0.41-0.25-0.83-0.49-1.24-0.74c-5.81,7.35-11.61,14.69-17.37,21.97
		c-3.5-1.03-4.32-3.27-4.28-6.17c0.06-4.58,0.01-9.16,0.01-13.74v-105.59v-8.19c-4.12-1.43-4.45,0.81-4.91,3.05
		c-2.35,11.57-4.64,23.15-7.12,34.69c-5.44,25.31-12.92,49.91-26.06,72.45c-2.03,3.48-4.29,6.83-7.96,10.1
		c-12.2-61.26-24.4-122.52-36.9-185.23c-1.71,2.57-2.8,3.92-3.59,5.43c-7.83,14.94-15.61,29.9-23.41,44.86
		c-0.78,1.49-1.35,3.17-2.4,4.43c-0.81,0.97-2.6,2.26-3.29,1.95c-1.2-0.55-2.53-2.14-2.68-3.43c-1.15-9.32-1.68-18.73-3.02-28.02
		c-4.35-30.17-13.4-59.14-23.07-87.94c-10.19-30.36-20.27-60.77-30.07-91.26c-2.79-8.69-4.46-17.75-6.62-26.64
		c-0.45-1.84-0.42-4.04-4.31-3.54c-4.93,34.51-3.64,69.64-7.27,104.98c-1.05-2.22-2.2-4.39-3.14-6.65
		c-12.16-29.28-20.23-59.73-26-90.84c-7.01-37.72-10.7-75.85-14.54-113.97c-0.78-7.81-1.75-15.59-2.81-24.96
		c-2.65,3.26-4.32,5.22-5.87,7.27c-6.55,8.64-12.93,17.42-19.62,25.95c-8.93,11.39-20.1,20.09-33.22,26.15
		c-11.78,5.43-23.7,10.57-35.18,15.66c-3.95-2.02-3.61-4.99-2.98-7.83c0.46-2.08,1.24-4.16,2.27-6.03
		c22.24-40.46,36.97-83.7,46.77-128.61c6.06-27.76,10.86-55.79,15.97-83.75c7.71-42.19,21.3-82.07,46.18-117.44
		c33.24-47.26,78.47-78.17,132.82-96.37c26.39-8.83,53.58-13.91,81.21-16.81C1060.65,1109.91,1061.09,1110.19,1062.71,1110.69"/>
	<path class="st0" d="M1349.07,1851.6c2.21,3.1,3.73,4.77,4.73,6.72c2.65,5.12,4.75,10.55,7.66,15.51
		c4.15,7.05,10.64,10.7,18.84,9.39c7.09-1.14,14.21-2.75,20.95-5.18c31.03-11.21,62.04-22.47,92.83-34.3
		c33.15-12.74,65.93-12.03,98.61,1.2c22.1,8.94,44.14,18.03,66.13,27.24c12.78,5.35,26.08,8.39,39.75,10.2
		c9.67,1.28,17.04-2.16,21.84-10.64c3.05-5.39,5.79-10.96,10.02-16.46c2.16,9.27,4.72,18.47,6.39,27.83
		c3.94,22.07,4.43,44.17-2.26,65.85c-8.09,26.16-23.03,47.56-45.75,63.16c-6.35,4.36-12.95,8.39-19.68,12.13
		c-3.95,2.2-8.29,3.89-12.64,5.17c-7.66,2.25-14.24-0.03-19.62-5.87c-1.29-1.39-2.54-2.82-4.09-4.55c-2.42,1.98-4.62,3.79-6.84,5.58
		c-13.52,10.96-27.74,20.79-43.61,28.15c-30.81,14.3-61.05,13.32-90.88-2.89c-14.06-7.64-26.71-17.22-38.78-27.63
		c-1.96-1.69-3.97-3.34-6.12-5.15c-0.97,1.28-1.58,2-2.1,2.77c-6.72,9.87-12.76,12.15-24.08,8.43
		c-18.45-6.07-34.43-16.28-47.48-30.62c-25.41-27.91-36.75-60.66-32.08-98.37c1.74-14.1,4.39-28.08,6.66-42.1
		C1347.66,1856,1348.11,1854.88,1349.07,1851.6"/>
	<path class="st0" d="M2209.13,854.12c-6.49,8.38-12.5,16.12-19.01,24.52c-294.02-207.37-620.63-315.68-980.3-325.42v-33.8
		c1.24-0.21,2.59-0.61,3.94-0.64c33.98-0.64,67.98-2.71,101.91,0.28c29.04,2.56,58.09,5.25,86.97,9.08
		c66.45,8.79,131.98,22.39,196.8,39.46c99.85,26.29,196.93,60.65,292.36,99.89c61.99,25.49,122.81,53.42,180.78,87.23
		c45.49,26.52,89,55.83,128.43,90.91C2203.81,848.11,2206.22,851.05,2209.13,854.12"/>
	<path class="st0" d="M1952.4,814.02c2.49,0.52,3.65,0.6,4.67,1.01c37.56,14.95,73.06,33.53,104.56,59.2
		c26.78,21.83,47.52,48.32,62.12,79.64c11.31,24.26,23.7,47.96,38.82,70.08c8.83,12.9,18.66,25.12,27.97,37.7
		c2.08,2.82,3.84,5.88,6.63,10.2c-34.3-5.24-61.65-23.21-91.83-36.28c1.32,8.04,9.91,12.57,9.11,22.08
		c-14.28-5.78-28.28-8.98-39.6-18.83c-24.09-20.95-46.32-43.56-64.94-69.58c-15.28-21.35-30.84-42.51-45.9-64.01
		c-22.44-32.03-46.85-62.41-73.85-90.71c-3.66-3.83-7.23-7.76-10.61-11.84c-1-1.21-1.21-3.07-1.78-4.63
		c0.48-0.37,0.95-0.75,1.43-1.12c35.04,19.26,70.08,38.51,105.12,57.77c0.39-0.45,0.79-0.9,1.18-1.35
		C1974.76,840.58,1964.02,827.83,1952.4,814.02"/>
	<path class="st0" d="M1095.15,854.37c35.58-19.5,71.16-38.99,106.93-58.58c2.67,2.72,3.13,4.85,0.16,7.36
		c-34.98,29.56-62.14,65.89-87.65,103.38c-32.14,47.22-69.26,90.17-108.69,131.27c-10.87,11.33-26.43,17.69-43.3,17.57
		c0.81-3.79,3.79-6.06,5.73-8.92c2.02-2.97,4.31-5.76,6.11-9.22c-29.77,11.62-58.78,24.79-88.05,37.1
		c-2.38-1.17-2.69-2.83-1.53-4.82c0.97-1.66,2.07-3.25,3.11-4.87c13.79-21.22,27.9-42.23,41.24-63.72
		c7.99-12.87,15.39-26.19,21.97-39.83c27.14-56.18,69.16-97.41,124.75-125.04c12.49-6.21,25.49-11.39,38.29-16.95
		c2.32-1,4.83-1.56,7.89-1.21c-9.29,11.8-18.59,23.6-27.88,35.41C1094.54,853.65,1094.84,854.01,1095.15,854.37"/>
	<path class="st0" d="M1029.44,619.11c-3-4.79-5.25-8.38-8.02-12.79c13.36,0.8,25.4,2.75,37.34,5.3
		c19.4,4.13,38.03,10.49,55.6,19.77c2.51,1.32,5.18,2.9,6.86,5.06c1.45,1.87,2.66,4.99,2.17,7.15c-3.7,16.43-7.84,32.76-11.87,49.12
		c-0.1,0.41-0.56,0.73-1.33,1.71c-6.44-1.23-13.2-2.84-20.05-3.77c-14.05-1.9-28.12-3.97-42.25-4.95
		c-10.79-0.75-21.51,1.24-32.86,4.77c4.88,6.6,9.38,12.7,13.94,18.89c-2.31,2.74-5.16,1.72-7.59,2.06
		c-14.29,2.01-28.72,3.27-42.85,6.05c-14.63,2.87-27.59,9.82-38.74,19.93c-1.77,1.61-3.96,2.76-5.95,4.12
		c0.34,0.7,0.69,1.41,1.03,2.12c14.67,4.23,29.33,8.46,45.2,13.03c-3.13,2.14-5.28,3.59-7.41,5.06
		c-7.54,5.19-15.27,10.11-22.56,15.63c-10.99,8.33-19.35,18.73-23.12,32.33c-0.18,0.63-0.76,1.15-1.65,2.47
		c-21.66-37.7-33.83-75.96-15.42-118.7c-12.03-3.94-23.42-7.66-34.86-11.41c4.63-7.18,44.45-29.93,72.5-41.67
		C973.45,629.53,1000.35,622.54,1029.44,619.11"/>
	<path class="st0" d="M1229.04,654.51c-3.33,8.95-3.14,17-1.27,25.09c2.58,11.19,7.53,21.47,14.17,30.64
		c11.57,15.97,23.89,31.41,35.92,47.06c1.42,1.85,2.92,3.62,5.24,6.48c-10.22,1.24-19.23,2.59-28.29,3.37
		c-19.31,1.68-38.57,1.44-57.17-4.83c-7.03-2.36-13.88-5.47-20.51-8.82c-19.81-10.03-28.85-26.86-29.58-48.55
		c-0.66-19.64,3.79-38.24,12.08-55.96c2.24-4.79,5.06-9.31,7.33-14.09c4.82-10.15,13.12-14.2,23.92-14.24
		c22.64-0.09,45.29-0.25,67.93-0.33c6.99-0.02,13.97,0.09,20.96,0.21c8.27,0.13,14.68,3.41,19.37,10.52
		c20.28,30.77,40.74,61.41,61.09,92.13c1.24,1.87,2.04,4.04,3.79,7.59c-5.14-1.09-8.63-1.71-12.05-2.58
		c-23.57-5.97-45.23-16.27-65.69-29.23c-18.16-11.51-34.94-24.82-50.98-39.09C1233.53,658.29,1231.7,656.78,1229.04,654.51"/>
	<path class="st0" d="M1262.13,1954.19c1.47-2.52,2.71-4.52,3.83-6.58c6.54-12.07,13.05-24.16,19.58-36.24
		c1.23-2.28,2.28-4.98,6.25-2.93c-1.66,10.21-3.44,20.34-4.94,30.52c-9.87,67.18-9.83,134.02,8.07,200.04
		c4.21,15.54,9.97,30.66,15.03,45.97c0.74,2.24,1.61,4.43,2.32,6.39c-2.6,2.81-4.16,1.35-5.72-0.42
		c-20.92-23.76-40.35-48.51-53.59-77.62c-13.8-30.32-22.06-62.1-26.11-95.06c-4.42-35.97-4.02-72.14-4.37-108.28
		c-0.41-43.13-0.67-86.27-1.61-129.39c-0.53-24.08-2.34-48.13-3.5-72.2c-0.21-4.28-0.03-8.58-0.03-13.86
		c1.53,1.62,2.74,2.58,3.56,3.81c13.45,20.22,21.64,42.57,24.58,66.52c2.72,22.22,4.29,44.6,5.76,66.95
		c2.29,34.86,4.02,69.76,6.13,104.63C1257.74,1942.34,1258.28,1948.36,1262.13,1954.19"/>
	<path class="st0" d="M1771.92,2189.11c15.18-45.17,24.2-91.26,26.93-138.64c2.71-47.11-0.85-93.85-7.05-140.7
		c5.1,7.06,8.84,14.89,13.01,22.44c4.28,7.74,8.43,15.55,12.47,22.99c4.06-0.13,3.86-2.53,3.96-4.67c0.41-8.67,0.83-17.33,1.18-26
		c2.14-53.72,8.13-107.11,13.52-160.56c2.63-26.11,10.5-50.28,22.43-73.55c0.21-0.07,0.69-0.44,1.07-0.35
		c1.15,0.25,2.27,0.68,3.94,1.22c-0.67,5.26-1.44,10.45-1.98,15.66c-0.79,7.66-1.93,15.34-2.04,23.02
		c-0.96,67.22-1.73,134.44-2.54,201.66c-0.39,32.54-1.32,65.03-6.39,97.27c-7.84,49.84-24.42,96.07-56.16,136
		c-5.69,7.15-12.06,13.77-18.18,20.57C1774.85,2186.82,1773.31,2187.9,1771.92,2189.11"/>
	<path class="st0" d="M724.76,1464.94c-0.1-1.37-0.31-2.75-0.29-4.12c0.67-38.08,1.03-76.16,2.16-114.22
		c0.82-27.45,2.01-54.93,6.89-82.06c6.27-34.83,19.43-66.5,43.54-92.99c22.16-24.35,49.82-39.89,80.8-50.02
		c18.16-5.94,36.84-9.43,55.72-11.97c1.1-0.15,2.26,0.13,4.64,0.3c-1.62,1.91-2.37,3.36-3.56,4.09c-3.07,1.88-6.33,3.47-9.54,5.12
		c-30.52,15.6-58.11,35.16-81.39,60.48c-35.04,38.11-55.26,83.36-62.52,134.21c-5.11,35.8-10.79,71.43-18.8,106.7
		C738.85,1436.08,732.23,1450.44,724.76,1464.94"/>
	<path class="st0" d="M2353.69,1462.88c-1.32-2.12-2.73-4.19-3.96-6.37c-9.35-16.58-14.42-34.64-17.62-53.22
		c-5.5-32.03-10.67-64.12-15.94-96.19c-4.47-27.24-11.74-53.59-24.77-78.13c-18.24-34.33-44.27-61.64-75.61-84.18
		c-15.08-10.85-30.91-20.47-47.5-28.84c-2.84-1.44-6.52-2.32-6.53-7.46c6.58,1.28,12.89,2.51,19.21,3.73
		c19.88,3.85,39.57,8.28,58.33,16.16c54.25,22.8,87.7,63.46,102.82,119.82c5.27,19.63,7.98,39.66,8.66,59.94
		c1.32,39.48,2.36,78.97,3.52,118.46c0.29,10.11,0.59,20.22,0.87,30.34c0.05,1.82,0.01,3.64,0.01,5.46
		C2354.69,1462.55,2354.19,1462.72,2353.69,1462.88"/>
	<path class="st0" d="M766.78,1069.07c-1.27-2.8-2.14-3.98-2.32-5.25c-2.6-18.39-4.72-36.76-2.33-55.41
		c2.98-23.23,13.02-42.6,30.38-58.25c5.01-4.52,10.01-9.05,15.04-13.55c20.96-18.74,38.83-40.14,54.44-63.48
		c2.93-4.38,6.11-8.59,9.54-13.4c2.28,2.47,2.09,5.11,2.29,7.55c0.85,10.95-0.72,21.63-3.79,32.11c-2.29,7.81-4.73,15.57-6.07,24.05
		c9.44-11.62,18.88-23.24,28.5-35.09c2.07,5.03,2.41,12.77,1.17,20.07c-2.68,15.77-10.33,28.98-21.43,40.16
		c-15.95,16.08-32.21,31.84-48.32,47.76c-9.24,9.15-18.71,18.1-27.58,27.59c-10.92,11.69-19.77,24.87-26.19,39.6
		C769.47,1065.02,768.46,1066.31,766.78,1069.07"/>
	<path class="st0" d="M1498.65,2305.55c-6.73-0.89-12.06-3.31-16.38-7.04c-7.64-6.57-15.45-13.18-21.9-20.85
		c-12.79-15.21-26.64-29.08-42.52-41.09c-16.42-12.41-30.96-26.85-42.79-43.8c-20.81-29.83-30.11-62.68-25.63-99.08
		c1.2-9.79,2.28-19.59,3.43-29.5c3.66-1.57,5.2-0.78,5.9,3.22c2.39,13.74,4.45,27.61,7.93,41.09c6.73,26.07,18.14,50.31,32.34,73.09
		c10.32,16.54,21.72,32.41,32.68,48.55c0.91,1.35,2.12,2.49,4.48,5.2c0.26-9.69,0.12-17.73,0.15-25.76c0.02-7.96,0-15.91,0-23.86
		v-24.58v-24.27c2.02-0.21,3.55-0.36,5.62-0.56c2.13,11.12,4.11,21.96,6.28,32.76c7.71,38.39,18.22,75.88,36.23,110.9
		C1488.75,2288.32,1493.55,2296.4,1498.65,2305.55"/>
	<path class="st0" d="M1723.71,2072.06c0.75,2.14,1.64,4.25,2.23,6.44c10.57,38.92,3.02,74.86-18.08,108.46
		c-12.74,20.27-29.61,36.74-48.66,50.93c-12.24,9.12-23.26,19.33-33.62,30.51c-10.14,10.93-21.17,21.04-31.91,31.4
		c-2.58,2.49-5.57,4.56-9.11,7.42c8.12-18.8,16.65-36.41,23.35-54.69c6.86-18.72,12.51-37.94,17.6-57.24
		c5.02-19.02,8.66-38.41,12.89-57.56c2.46-0.87,4.05-0.33,4.32,2.22c0.2,1.91,0.1,3.85,0.1,5.78c0,27.22,0,54.44,0,81.66v8.27
		c8.47-6.04,36.79-49.45,50.79-77.24c13.77-27.35,23.63-56.03,28.63-86.38C1722.74,2072.06,1723.22,2072.06,1723.71,2072.06"/>
	<path class="st0" d="M2243.93,912.16c16.63,12.97,31.88,25.84,45.52,40.6c21.78,23.57,30.6,51.38,27.7,83.07
		c-0.93,10.24-2.53,20.42-4.02,32.19c-2.1-2.41-3.28-3.46-4.08-4.74c-22.72-36.3-51.22-67.51-83.62-95.31
		c-2.37-2.04-4.82-4.02-7.01-6.26c-5.85-5.96-6.11-10.63-0.84-17.18c5.44-6.75,11.12-13.32,16.62-20.03
		C2237.4,920.62,2240.43,916.62,2243.93,912.16"/>
	<path class="st0" d="M1312.27,620.79c17.94,1.75,35.91,3.24,53.8,5.39c7.09,0.85,13.15,4.59,17.48,10.57
		c22.45,31.03,44.88,62.07,67.3,93.11c0.41,0.57,0.64,1.28,1.66,3.4c-29.35-11.48-55.65-25.77-79.64-44.27
		c-24.19-18.65-44.74-40.66-61.49-66.16C1311.68,622.16,1311.97,621.47,1312.27,620.79"/>
	<path class="st0" d="M1640.2,1565.56c-5.07-3.06-8.56-5.7-12.46-7.39c-5.51-2.39-11.39-1.6-17.06-0.3
		c-27.88,6.42-55.86,12.45-83.55,19.62c-12.25,3.17-23.89,8.72-35.8,13.22c-3.34,1.26-6.63,2.63-10.93,4.34
		c-2.52-6.47-5.28-12.32-7.05-18.46c-1.8-6.26,0.4-10.74,6.45-13.65c4.51-2.17,9.37-3.82,14.24-5
		c38.3-9.34,76.66-18.48,114.98-27.78c5.13-1.24,10.11-3.07,15.18-4.55c7.69-2.23,12.19-0.51,16.54,6.27
		c3.1,4.81,4.84,10.15,3.9,15.78C1643.68,1553.5,1641.83,1559.17,1640.2,1565.56"/>
	<path class="st0" d="M1440.05,1339.76c3.16-2.07,5.23-3.61,7.47-4.84c11.35-6.26,23.66-8.73,36.33-6.67
		c33.85,5.51,65.56-1.07,96.24-15.25c7.39-3.42,15.12-6.23,22.89-8.67c8.36-2.61,16.65-0.77,25.77,1.93
		c-1.92,1.65-3.14,2.91-4.57,3.91c-15.82,11.01-31.76,21.84-47.48,33c-21.79,15.47-45.62,19.89-71.41,13.49
		C1484.04,1351.39,1462.89,1345.7,1440.05,1339.76"/>
	<path class="st0" d="M1449.48,1800.87c-10.67,8.77-21.75,15.72-34.77,19.14c-14.98,3.95-24.48-1.23-28.25-16.26
		c-1.8-7.17-2.81-14.7-2.99-22.09c-0.38-15.85,0.01-31.73,0.11-47.59c0.01-0.9,0.22-1.81,0.35-2.83
		C1388.94,1733.94,1433.98,1781.82,1449.48,1800.87"/>
	<path class="st0" d="M1629.61,1800.36c21.76-23.6,42.61-46.22,64.53-69.99c1.03,5.47,2.08,9.54,2.53,13.68
		c2.34,21.58,0.33,42.67-6.37,63.46c-2.68,8.32-7.97,11.48-15.77,12.22c-11.78,1.12-22.45-2.2-32.05-8.82
		C1638.17,1807.95,1634.34,1804.28,1629.61,1800.36"/>
	<path class="st0" d="M1507.19,741.4c-19.64-35.14-38.5-68.87-57.72-103.27c1.56-0.16,2.41-0.46,3.17-0.3
		c15.04,3.2,30.04,6.56,45.1,9.64c8.07,1.65,12.41,6.71,14.41,14.31c3.92,14.89,4.07,30.02,2.21,45.13
		c-1.26,10.24-3.62,20.34-5.53,30.49C1508.67,738.27,1508.17,739.07,1507.19,741.4"/>
	<path class="st0" d="M1724.62,1511.2c2.2,43.37-6.68,81.57-36.13,114.09c-0.65-1.32-1.26-2.03-1.32-2.78
		c-2.12-24.92-4.03-49.85-6.35-74.74c-0.82-8.83,2.29-14.73,10.15-18.72C1701.86,1523.53,1712.55,1517.63,1724.62,1511.2"/>
	<path class="st0" d="M1345.47,1574.87c9.54,0.73,18.4,1.39,27.26,2.11c3.84,0.31,7.67,0.76,11.51,1.13
		c8.13,0.78,9.68,2.06,11.72,10.17c1.7,6.77,3.27,13.58,4.89,20.37c3.97,16.63,7.94,33.26,11.87,49.9c0.43,1.81,0.58,3.69,0.9,5.76
		C1387.45,1655.33,1351.26,1607.98,1345.47,1574.87"/>
	<path class="st0" d="M1568.37,737.02c-1.61-24.98-3.2-49.69-4.85-75.42c15.76,3.14,30.32,7.43,45.47,11.25
		c-0.78,1.86-1.22,3.22-1.88,4.45c-10.13,18.88-20.33,37.73-30.43,56.63C1574.93,737.19,1573.14,739.8,1568.37,737.02"/>
	<path class="st0" d="M842.71,862.73c-8.96,21.31-21.46,39.63-42.56,50.68c-15.46,8.1-25.83,6.55-38.49-5.69
		c-1.84-1.77-3.45-3.78-5.4-5.94C810.47,887.87,800.62,889.43,842.71,862.73"/>
	<path class="st0" d="M1622.45,733.29c9.53-11.91,17.72-25.18,29-36.12c5.56-5.39,11.73-7.07,19.05-5.76
		c5.43,0.98,10.84,2.05,16.27,3.05c2.29,0.42,4.01,1.18,4.34,3.94c0.33,2.74-1.21,3.83-3.24,4.91c-8.46,4.54-16.87,9.16-25.3,13.74
		c-11.18,6.07-22.38,12.08-33.53,18.2C1626.43,736.68,1624.18,737.54,1622.45,733.29"/>
	<path class="st0" d="M2321.14,902.74c-10.07,11.45-21.82,15.43-35.55,13.54c-9.67-1.33-17.85-5.68-23.3-14.19
		c-2.3-3.58-4.15-7.57-1.09-11.36c2.87-3.55,7.11-5.18,11.68-3.73C2288.67,892.03,2304.38,897.26,2321.14,902.74"/>
	<path class="st0" d="M1353.2,1086.37c-12.94,15.13-28.76,18.18-46.7,12.76c-17.1-5.17-29.47-16.46-40.04-31.28
		c7.14-2.02,13.48-1.91,19.79-0.42c4.17,0.98,7.34,3.62,9.5,7.28c1.21,2.06,2.51,4.27,2.93,6.56c1.89,10.42,11.3,16.55,24.78,12.44
		c3.62-1.11,7.02-3.08,10.38-4.92c4.84-2.64,9.55-5.52,14.9-8.65C1350.41,1082.46,1351.86,1084.49,1353.2,1086.37"/>
	<path class="st0" d="M1726.67,1078.58c6.72,3.79,12.1,6.84,17.49,9.88c3.34,1.89,6.51,4.22,10.05,5.57
		c9.56,3.65,18.28,0.76,23.94-7.77c1.84-2.78,3.13-5.95,4.51-9.01c2.94-6.53,7.81-10.3,15.04-10.54c5.02-0.17,10.04-0.03,16.43-0.03
		c-1.87,2.75-2.74,4.34-3.9,5.7c-11.33,13.28-24.45,24.11-42.16,27.24c-7.24,1.28-14.88,1.38-22.23,0.78
		C1735.7,1099.57,1729.51,1092.43,1726.67,1078.58"/>
	<path class="st0" d="M1857.04,764.09h-59.56c7.44-13.8,19.98-19.27,33.96-14.91c3.88,1.21,7.66,2.9,11.26,4.82
		c5.04,2.69,9.87,5.79,14.79,8.71C1857.34,763.17,1857.19,763.63,1857.04,764.09"/>
	<path class="st0" d="M1597.42,1796.21c4.59-7.04,8.72-13.37,12.68-19.44c3.52,0.06,5.68,0.69,6.39,4.04
		c1.1,5.13,2.53,10.19,3.89,15.27c0.76,2.83,0.28,5.19-2.88,7.48C1611.36,1801.3,1604.74,1798.88,1597.42,1796.21"/>
	<path class="st0" d="M1479.84,1797.96c-3.51,1.3-6.14,2.38-8.83,3.23c-6.05,1.94-10.54-0.53-11.62-6.72
		c-1.14-6.51,1.97-12.13,4.78-17.63c0.56-1.1,2.87-1.3,4.92-2.14C1472.62,1782.33,1476.01,1789.66,1479.84,1797.96"/>
	<path class="st0" d="M1747.82,721.21c-10.46,3.68-20.73,7.3-32.36,11.39c3.05-8.06,6.71-13.92,12.75-17.87
		c1.83-1.19,4.55-1.53,6.82-1.41C1739.1,713.53,1743.88,716.73,1747.82,721.21"/>
	<path class="st0" d="M1556.3,1776.88c2.28,8.57,4.16,15.63,6.23,23.39c-7.2,0.59-13.79,1.13-21.74,1.79
		C1545.64,1793.24,1550.64,1785.82,1556.3,1776.88"/>
	<path class="st0" d="M1584.5,1779.2c1.5,7.04,2.65,12.41,3.98,18.65c-5.63,0.99-10.95,1.93-16.45,2.91
		c-1.9-2.44-3.01-4.55-1.04-7.28c2.67-3.71,5.09-7.62,7.94-11.18C1579.93,1781.06,1581.9,1780.6,1584.5,1779.2"/>
	<path class="st0" d="M1518.09,1799.24c1.11-6.62,2.05-12.23,2.99-17.8c3.86-1.72,6.09-0.82,7.37,2.97
		c1.73,5.15,3.7,10.22,5.98,16.47C1528.58,1800.29,1523.76,1799.81,1518.09,1799.24"/>
	<path class="st0" d="M1494.95,1781.25c3.18,3.11,6.51,6.08,9.49,9.36c2.31,2.55,1.96,5.47-0.67,7.61
		c-3.11,2.54-6.52,4.71-11.07,7.96c-0.21-8.89,0.46-16.36,0.66-23.83C1493.88,1781.98,1494.42,1781.61,1494.95,1781.25"/>
	<path class="st0" d="M1808.3,434.63c-5.19-0.56-10.16-1.44-15.15-1.54c-5.97-0.12-12.04-0.15-17.91,0.78
		c-11.01,1.74-18.62,8.49-23.54,18.25c-2.54,5.06-4.62,10.36-7.05,15.86c-6.57-13.1-0.05-29.52,15.37-39.79
		C1775.74,417.72,1795.98,420.34,1808.3,434.63"/>
	<path class="st0" d="M1406.88,401.11c-2.89-16.52,3.09-26.88,18.07-32.69c10.43-4.05,21.1-0.79,26.99,8.25
		C1428.34,374.74,1420.3,377.09,1406.88,401.11"/>
	<path class="st0" d="M2122.24,598.79c-33.9-3.26-33.1,2.13-47.02,22.83c-4.9-8.06-1.69-20.21,7.2-26.85
		C2093.34,586.63,2109.29,584.12,2122.24,598.79"/>
	<path class="st0" d="M383.37,2465.03l4.02,165.17h-14.98c-7.07-41.41-24.43-74.73-52.07-99.94
		c-27.65-25.21-57.56-37.82-89.71-37.82c-24.85,0-44.53,6.64-59.02,19.92c-14.5,13.28-21.75,28.57-21.75,45.86
		c0,10.96,2.56,20.71,7.68,29.23c7.06,11.46,18.39,22.78,33.98,33.98c11.45,8.04,37.88,22.3,79.3,42.76
		c57.98,28.5,97.08,55.42,117.3,80.76c19.97,25.34,29.97,54.33,29.97,86.97c0,41.42-16.14,77.04-48.42,106.88
		c-32.29,29.85-73.27,44.77-122.96,44.77c-15.6,0-30.33-1.59-44.22-4.75c-13.89-3.17-31.31-9.14-52.25-17.9
		c-11.69-4.87-21.32-7.31-28.87-7.31c-6.34,0-13.04,2.44-20.1,7.31c-7.07,4.87-12.79,12.3-17.18,22.29H70.57v-187.1h13.52
		c10.72,52.62,31.37,92.76,61.94,120.41c30.57,27.65,63.52,41.48,98.85,41.48c27.28,0,49.02-7.42,65.23-22.29
		c16.2-14.86,24.3-32.16,24.3-51.89c0-11.69-3.11-23.02-9.32-33.98s-15.66-21.38-28.32-31.24c-12.67-9.87-35.08-22.71-67.24-38.55
		c-45.07-22.17-77.47-41.05-97.2-56.64c-19.73-15.59-34.9-33.01-45.49-52.26c-10.6-19.24-15.9-40.43-15.9-63.58
		c0-39.47,14.49-73.09,43.48-100.86c28.99-27.77,65.53-41.66,109.63-41.66c16.08,0,31.66,1.95,46.77,5.85
		c11.45,2.92,25.4,8.34,41.84,16.26c16.44,7.92,27.96,11.87,34.53,11.87c6.33,0,11.33-1.95,14.98-5.84
		c3.65-3.89,7.06-13.28,10.23-28.14H383.37z"/>
	<path class="st0" d="M722.12,2958.35v13.52H463.04v-13.52h16.44c14.37,0,25.94-2.56,34.71-7.68c6.33-3.41,11.2-9.25,14.62-17.54
		c2.68-5.84,4.02-21.19,4.02-46.04v-325.95c0-25.34-1.34-41.17-4.02-47.51c-2.68-6.33-8.1-11.88-16.26-16.63
		c-8.16-4.75-19.18-7.12-33.07-7.12h-16.44v-13.52h259.08v13.52h-16.44c-14.38,0-25.95,2.56-34.71,7.68
		c-6.34,3.41-11.33,9.26-14.98,17.54c-2.68,5.85-4.02,21.2-4.02,46.05v325.95c0,25.34,1.4,41.18,4.21,47.51
		c2.8,6.34,8.28,11.88,16.44,16.63c8.16,4.75,19.19,7.12,33.07,7.12H722.12z"/>
	<path class="st0" d="M925.66,2476.36l244.47,307.32v-213.04c0-29.72-4.27-49.82-12.79-60.3c-11.69-14.12-31.31-20.94-58.83-20.46
		v-13.52h163.71v13.52c-20.95,2.69-35.02,6.16-42.21,10.42c-7.19,4.26-12.79,11.21-16.81,20.83c-4.02,9.63-6.03,26.13-6.03,49.51
		v412.56h-12.42l-335.1-412.56v314.99c0,28.5,6.51,47.75,19.55,57.74c13.03,10,27.95,14.98,44.76,14.98h11.69v13.52H749.89v-13.52
		c27.28-0.24,46.28-5.85,57.01-16.81c10.72-10.96,16.08-29.6,16.08-55.91v-349.71l-10.6-13.16c-10.48-13.16-19.73-21.8-27.77-25.95
		c-8.04-4.14-19.61-6.45-34.71-6.94v-13.52H925.66z"/>
	<path class="st0" d="M1289.63,2971.87v-13.52h16.44c14.37,0,25.4-2.25,33.07-6.76c7.68-4.51,13.34-10.66,16.99-18.46
		c2.19-5.12,3.29-20.46,3.29-46.04v-325.96c0-25.33-1.34-41.17-4.02-47.5c-2.68-6.33-8.1-11.88-16.26-16.63
		c-8.17-4.75-19.18-7.12-33.07-7.12h-16.44v-13.52h221.81c59.2,0,106.82,8.04,142.88,24.12c44.09,19.73,77.53,49.57,100.31,89.52
		c22.78,39.96,34.17,85.15,34.17,135.58c0,34.84-5.61,66.94-16.81,96.29c-11.21,29.36-25.7,53.6-43.48,72.72
		c-17.79,19.13-38.31,34.47-61.58,46.04c-23.26,11.57-51.7,20.53-85.33,26.86c-14.86,2.93-38.25,4.39-70.16,4.39H1289.63z
		 M1478.55,2504.5v386.62c0,20.46,0.97,33.01,2.92,37.64c1.95,4.63,5.24,8.17,9.87,10.6c6.57,3.66,16.08,5.48,28.5,5.48
		c40.68,0,71.74-13.89,93.18-41.66c29.24-37.51,43.86-95.74,43.86-174.67c0-63.58-9.99-114.38-29.97-152.39
		c-15.84-29.71-36.18-49.93-61.02-60.66C1548.35,2507.91,1519.23,2504.26,1478.55,2504.5"/>
	<path class="st0" d="M2094.29,2958.35v13.52H1835.2v-13.52h16.45c14.37,0,25.95-2.56,34.71-7.68c6.33-3.41,11.21-9.25,14.62-17.54
		c2.68-5.84,4.02-21.19,4.02-46.04v-325.95c0-25.34-1.34-41.17-4.02-47.51c-2.68-6.33-8.1-11.88-16.26-16.63
		c-8.17-4.75-19.19-7.12-33.07-7.12h-16.45v-13.52h259.09v13.52h-16.45c-14.38,0-25.94,2.56-34.71,7.68
		c-6.34,3.41-11.33,9.26-14.98,17.54c-2.68,5.85-4.02,21.2-4.02,46.05v325.95c0,25.34,1.4,41.18,4.2,47.51
		c2.8,6.34,8.28,11.88,16.45,16.63c8.16,4.75,19.19,7.12,33.07,7.12H2094.29z"/>
	<path class="st0" d="M2611,2465.03v171.75h-14.25c-10.72-44.82-30.69-79.17-59.93-103.05c-29.24-23.87-62.37-35.81-99.4-35.81
		c-30.94,0-59.32,8.89-85.14,26.68c-25.83,17.78-44.71,41.05-56.64,69.79c-15.34,36.79-23.02,77.71-23.02,122.78
		c0,44.34,5.6,84.72,16.81,121.14c11.2,36.42,28.74,63.95,52.62,82.58c23.87,18.64,54.81,27.96,92.82,27.96
		c31.18,0,59.74-6.81,85.69-20.46c25.94-13.64,53.29-37.15,82.04-70.53v42.75c-27.77,28.99-56.71,50.01-86.79,63.04
		c-30.09,13.03-65.23,19.55-105.43,19.55c-52.87,0-99.82-10.6-140.87-31.79c-41.05-21.19-72.72-51.64-95.01-91.36
		c-22.29-39.7-33.44-81.97-33.44-126.8c0-47.26,12.36-92.08,37.09-134.47c24.72-42.39,58.1-75.27,100.13-98.67
		c42.02-23.39,86.66-35.08,133.93-35.08c34.83,0,71.62,7.56,110.36,22.66c22.41,8.77,36.66,13.16,42.75,13.16
		c7.8,0,14.55-2.86,20.28-8.59c5.72-5.72,9.44-14.8,11.14-27.23H2611z"/>
	<path class="st0" d="M2963.27,2830.82h-175.04l-20.83,48.24c-6.82,16.08-10.23,29.36-10.23,39.83c0,13.89,5.6,24.12,16.81,30.7
		c6.57,3.9,22.78,6.83,48.6,8.77v13.52h-164.81v-13.52c17.78-2.68,32.4-10.05,43.85-22.11c11.45-12.06,25.58-36.97,42.39-74.73
		l177.23-395.39h6.94l178.7,406.35c17.05,38.5,31.06,62.73,42.02,72.72c8.28,7.56,19.97,11.94,35.08,13.16v13.52h-239.72v-13.52
		h9.87c19.24,0,32.76-2.68,40.56-8.04c5.36-3.89,8.04-9.5,8.04-16.81c0-4.39-0.73-8.89-2.19-13.52
		c-0.49-2.19-4.15-11.33-10.96-27.41L2963.27,2830.82z M2950.84,2803.78l-73.81-170.65l-76.01,170.65H2950.84z"/>
</g>
</svg>
